<?xml version="1.0" standalone="no"?>
<!DOCTYPE svg PUBLIC "-//W3C//DTD SVG 20010904//EN"
 "http://www.w3.org/TR/2001/REC-SVG-20010904/DTD/svg10.dtd">
<svg version="1.0" xmlns="http://www.w3.org/2000/svg"
 width="1920.000000pt" height="960.000000pt" viewBox="0 0 1920.000000 960.000000"
 preserveAspectRatio="xMidYMid meet">

<g transform="translate(0.000000,960.000000) scale(0.100000,-0.100000)"
fill="#000000" stroke="none">
<path d="M9280 8394 c-295 -27 -562 -82 -825 -169 -419 -138 -779 -332 -1115
-599 -147 -117 -444 -411 -551 -546 -671 -843 -934 -1907 -728 -2945 176 -889
670 -1666 1399 -2202 625 -459 1418 -705 2190 -680 388 13 697 71 1066 198
921 318 1683 1022 2078 1919 147 335 231 643 288 1050 17 128 18 668 0 810
-91 735 -381 1396 -853 1945 -113 132 -328 339 -464 448 -509 408 -1119 668
-1765 753 -120 16 -608 28 -720 18z m2938 -1651 l3 -123 -666 0 -665 0 0 118
c0 65 3 122 7 125 3 4 302 6 662 5 l656 -3 3 -122z m2 -658 l0 -125 -662 2
-663 3 -3 109 c-1 61 0 116 2 123 4 11 129 13 666 13 l660 0 0 -125z m-2006
-435 c136 -34 238 -106 312 -217 41 -62 88 -189 99 -266 l7 -48 -107 3 -107 3
-18 72 c-34 133 -99 222 -193 264 -46 21 -67 24 -177 24 -117 0 -129 -2 -188
-29 -112 -52 -198 -172 -239 -332 -14 -56 -18 -112 -17 -304 0 -228 1 -238 28
-325 49 -160 115 -254 214 -302 54 -27 64 -28 192 -28 120 0 141 3 187 24 94
42 156 129 193 271 l18 65 103 0 104 0 -1 -36 c-2 -56 -40 -168 -81 -238 -108
-182 -280 -271 -528 -271 -190 0 -314 49 -435 170 -155 154 -220 354 -220 675
0 317 66 522 215 670 123 123 254 173 451 174 79 1 133 -5 188 -19z m1472 5
c216 -51 378 -206 453 -435 62 -185 68 -533 15 -745 -22 -86 -85 -210 -143
-281 -61 -76 -164 -146 -261 -181 -100 -35 -263 -43 -374 -19 -148 33 -272
116 -361 241 -118 165 -165 372 -151 670 8 180 33 293 92 414 81 166 229 289
404 335 72 19 248 20 326 1z m-3936 -622 c222 -340 409 -625 417 -633 11 -12
13 89 13 618 l0 632 110 0 110 0 0 -825 0 -826 -112 3 -113 3 -410 629 -410
629 -3 -632 -2 -631 -110 0 -110 0 0 825 0 825 109 0 109 0 402 -617z m1260
-208 l0 -825 -105 0 -105 0 0 825 0 825 105 0 105 0 0 -825z m-610 -1235 l0
-120 -630 0 -630 0 0 120 0 120 630 0 630 0 0 -120z m-2 -628 l3 -122 -628 2
-628 3 -3 109 c-1 61 0 116 2 123 5 11 119 13 628 11 l623 -3 3 -123z"/>
<path d="M11430 5476 c-162 -35 -281 -167 -327 -364 -26 -109 -26 -475 0 -576
39 -155 131 -282 241 -332 215 -98 458 -16 555 189 59 125 66 168 66 432 0
202 -3 250 -18 305 -56 197 -162 311 -323 345 -81 17 -120 18 -194 1z"/>
</g>
</svg>
