<svg id="svg" version="1.1" xmlns="http://www.w3.org/2000/svg" xmlns:xlink="http://www.w3.org/1999/xlink" width="57" height="57" viewBox="57, 57, 400,200"><g id="svgg"><path id="path0" d="M227.133 57.133 C 227.060 57.207,227.000 58.332,227.000 59.633 L 227.000 62.000 240.700 62.000 L 254.400 62.000 254.400 59.500 L 254.400 57.000 240.833 57.000 C 233.372 57.000,227.207 57.060,227.133 57.133 M227.087 70.862 C 227.031 71.006,227.012 72.154,227.043 73.412 L 227.100 75.700 240.750 75.751 L 254.400 75.803 254.400 73.201 L 254.400 70.600 240.794 70.600 C 229.755 70.600,227.168 70.649,227.087 70.862 M204.800 82.469 C 198.147 84.453,195.200 89.680,195.200 99.500 C 195.200 110.788,199.469 116.646,207.924 116.957 C 214.881 117.214,219.424 114.060,221.006 107.878 C 221.578 105.639,221.714 105.800,219.244 105.800 L 217.089 105.800 216.731 107.187 C 215.490 112.007,212.222 114.105,207.075 113.385 C 201.812 112.648,199.700 108.672,199.700 99.500 C 199.700 90.192,201.841 86.374,207.505 85.587 C 212.404 84.905,215.853 87.293,216.841 92.050 L 217.080 93.200 219.240 93.200 C 220.619 93.200,221.400 93.124,221.400 92.989 C 221.400 89.606,218.274 84.703,215.182 83.236 C 212.361 81.897,207.838 81.563,204.800 82.469 M236.600 82.304 C 229.872 84.138,226.400 89.987,226.400 99.491 C 226.400 110.368,231.024 116.567,239.422 116.947 C 248.744 117.370,253.800 111.234,253.800 99.500 C 253.800 90.235,250.812 84.696,244.685 82.607 C 242.895 81.997,238.354 81.827,236.600 82.304 M148.600 99.493 L 148.600 116.600 150.800 116.600 L 153.000 116.600 153.000 103.500 C 153.000 96.295,153.076 90.400,153.168 90.400 C 153.261 90.400,154.645 92.403,156.243 94.850 C 159.580 99.958,169.204 114.732,169.923 115.850 L 170.406 116.600 172.603 116.600 L 174.800 116.600 174.800 99.500 L 174.800 82.400 172.700 82.400 L 170.600 82.400 170.600 95.500 C 170.600 104.456,170.534 108.600,170.392 108.600 C 170.277 108.600,168.869 106.597,167.264 104.150 C 162.119 96.307,161.518 95.388,158.207 90.300 C 156.416 87.550,154.530 84.670,154.015 83.900 L 153.078 82.500 150.839 82.443 L 148.600 82.387 148.600 99.493 M183.400 99.500 L 183.400 116.600 185.500 116.600 L 187.600 116.600 187.600 99.500 L 187.600 82.400 185.500 82.400 L 183.400 82.400 183.400 99.500 M242.008 85.802 C 247.595 86.861,250.201 92.633,249.421 102.220 C 248.865 109.048,246.408 112.510,241.586 113.256 C 236.747 114.006,232.694 111.036,231.273 105.700 C 230.727 103.652,230.723 95.129,231.266 93.200 C 232.839 87.616,236.885 84.830,242.008 85.802 M148.800 125.200 L 148.800 127.600 161.900 127.600 L 175.000 127.600 175.000 125.200 L 175.000 122.800 161.900 122.800 L 148.800 122.800 148.800 125.200 M148.933 135.933 C 148.860 136.007,148.800 137.087,148.800 138.333 L 148.800 140.600 161.900 140.600 L 175.000 140.600 175.000 138.200 L 175.000 135.800 162.033 135.800 C 154.902 135.800,149.007 135.860,148.933 135.933 " stroke="none" fill="#f8d034" fill-rule="evenodd"></path><path id="path1" d="M193.200 24.790 C 192.463 24.896,192.390 24.940,192.800 25.032 C 193.171 25.116,193.083 25.153,192.457 25.173 C 191.993 25.188,190.603 25.341,189.368 25.513 C 188.133 25.685,186.960 25.784,186.761 25.732 C 186.562 25.680,186.440 25.703,186.489 25.783 C 186.621 25.995,182.686 26.677,182.389 26.493 C 182.239 26.401,182.189 26.420,182.263 26.540 C 182.337 26.660,181.676 26.931,180.644 27.203 C 171.287 29.672,161.969 34.153,154.700 39.680 C 154.040 40.182,153.365 40.572,153.200 40.546 C 153.035 40.521,152.920 40.604,152.944 40.731 C 153.007 41.068,151.246 42.452,150.970 42.282 C 150.835 42.198,150.792 42.225,150.867 42.346 C 150.937 42.460,150.569 42.938,150.047 43.407 C 149.526 43.876,148.027 45.304,146.715 46.580 C 145.403 47.856,144.388 48.743,144.458 48.550 C 144.651 48.026,144.534 48.115,143.796 49.050 C 143.358 49.605,143.287 49.761,143.592 49.500 L 144.058 49.100 143.828 49.540 C 143.701 49.781,143.333 50.135,143.009 50.326 C 142.686 50.517,142.463 50.740,142.513 50.821 C 142.563 50.902,142.378 51.146,142.102 51.363 C 141.826 51.580,141.600 51.851,141.600 51.964 C 141.600 52.078,141.363 52.358,141.073 52.585 C 140.783 52.813,140.618 53.000,140.705 53.000 C 140.793 53.000,140.535 53.281,140.132 53.625 C 139.730 53.969,139.401 54.352,139.403 54.475 C 139.405 54.599,139.493 54.565,139.600 54.400 C 139.747 54.172,139.795 54.165,139.797 54.369 C 139.799 54.517,139.620 54.685,139.400 54.742 C 139.180 54.800,139.000 54.971,139.000 55.123 C 139.000 55.275,138.895 55.400,138.767 55.400 C 138.638 55.400,138.586 55.453,138.651 55.518 C 138.716 55.583,138.508 55.909,138.189 56.243 C 137.869 56.578,137.657 56.930,137.717 57.027 C 137.776 57.124,137.692 57.254,137.528 57.317 C 137.365 57.380,137.082 57.716,136.899 58.065 C 136.717 58.414,136.351 59.060,136.088 59.500 C 135.824 59.940,135.548 60.435,135.475 60.600 C 135.401 60.765,135.144 61.125,134.903 61.400 C 134.326 62.060,133.340 63.799,133.542 63.803 C 133.629 63.805,133.582 63.881,133.437 63.973 C 133.292 64.065,133.151 64.266,133.125 64.420 C 133.098 64.574,132.655 65.555,132.141 66.600 C 128.171 74.668,126.127 82.083,124.807 93.200 C 124.576 95.140,124.576 103.657,124.806 105.600 C 125.824 114.184,128.567 125.774,129.986 127.483 C 130.092 127.610,130.464 128.431,130.814 129.307 C 133.296 135.519,138.186 143.292,143.345 149.227 C 146.472 152.824,153.276 159.033,154.708 159.598 C 154.933 159.686,155.248 159.916,155.408 160.110 C 155.988 160.809,157.893 162.086,160.920 163.807 C 161.261 164.001,162.206 164.563,163.020 165.055 C 179.771 175.189,205.619 177.118,224.800 169.665 C 229.715 167.755,233.289 166.124,234.618 165.184 C 234.903 164.983,235.713 164.515,236.418 164.144 C 239.773 162.381,245.869 157.878,248.996 154.853 C 249.933 153.947,250.763 153.204,250.841 153.202 C 251.929 153.184,260.894 141.456,263.532 136.600 C 264.040 135.665,264.833 134.225,265.295 133.400 C 267.615 129.260,270.678 120.528,271.786 114.900 C 275.860 94.204,271.394 72.068,260.020 56.575 C 259.404 55.736,258.385 54.341,257.756 53.475 C 257.127 52.609,256.227 51.495,255.755 51.000 C 255.284 50.505,254.614 49.740,254.266 49.300 C 253.623 48.487,251.786 46.633,248.900 43.884 C 248.020 43.046,246.474 41.742,245.465 40.986 C 244.456 40.230,243.572 39.517,243.501 39.401 C 243.367 39.184,240.134 36.976,239.600 36.736 C 239.435 36.662,238.625 36.154,237.800 35.607 C 235.548 34.113,232.477 32.484,229.639 31.277 C 228.242 30.684,226.931 30.100,226.724 29.981 C 225.646 29.359,218.525 27.082,216.200 26.615 C 215.595 26.494,214.875 26.349,214.600 26.294 C 214.325 26.238,213.785 26.146,213.400 26.089 C 213.015 26.031,212.475 25.941,212.200 25.889 C 211.925 25.836,211.475 25.750,211.200 25.698 C 210.925 25.645,210.250 25.549,209.700 25.485 C 209.150 25.420,208.430 25.332,208.100 25.289 C 207.770 25.246,207.050 25.196,206.500 25.180 C 205.668 25.154,205.584 25.120,206.000 24.977 C 206.309 24.872,205.748 24.845,204.535 24.908 C 203.450 24.965,202.618 24.933,202.677 24.837 C 202.736 24.742,201.235 24.653,199.342 24.639 C 197.176 24.624,196.048 24.681,196.300 24.793 C 196.586 24.921,196.312 24.976,195.338 24.986 C 194.478 24.995,194.022 24.926,194.100 24.800 C 194.168 24.690,194.196 24.614,194.162 24.630 C 194.128 24.647,193.695 24.718,193.200 24.790 M254.556 59.550 L 254.500 62.300 240.700 62.300 L 226.900 62.300 226.844 59.811 C 226.812 58.442,226.832 57.205,226.887 57.061 C 226.968 56.850,229.621 56.800,240.799 56.800 L 254.611 56.800 254.556 59.550 M254.600 73.201 L 254.600 76.003 240.750 75.951 L 226.900 75.900 226.844 73.411 C 226.812 72.042,226.832 70.805,226.887 70.661 C 226.968 70.450,229.620 70.400,240.794 70.400 L 254.600 70.400 254.600 73.201 M212.777 82.121 C 217.218 83.115,220.797 87.346,221.512 92.450 L 221.645 93.400 219.264 93.400 L 216.883 93.400 216.545 91.959 C 215.594 87.908,213.517 85.990,209.732 85.671 C 205.289 85.296,202.021 87.625,200.451 92.284 C 199.735 94.411,199.607 103.668,200.262 105.974 C 201.756 111.238,203.987 113.100,208.796 113.100 C 213.465 113.099,215.232 111.745,216.496 107.200 L 216.913 105.700 219.257 105.644 C 221.976 105.578,221.835 105.418,221.211 107.857 C 219.567 114.284,215.138 117.397,208.000 117.140 C 201.764 116.917,197.681 113.589,195.667 107.090 C 194.809 104.323,194.809 94.677,195.667 91.910 C 198.124 83.983,204.582 80.288,212.777 82.121 M243.777 82.116 C 251.468 83.866,255.694 93.634,253.702 105.056 C 252.379 112.644,247.320 117.187,240.182 117.197 C 230.246 117.211,224.748 108.386,226.390 95.060 C 227.575 85.440,234.788 80.071,243.777 82.116 M155.304 85.450 C 156.472 87.238,159.604 92.030,162.264 96.101 C 164.924 100.172,167.797 104.577,168.649 105.891 L 170.197 108.279 170.249 95.290 L 170.300 82.300 172.650 82.244 L 175.000 82.187 175.000 99.494 L 175.000 116.800 172.650 116.796 L 170.300 116.792 168.369 113.846 C 167.306 112.226,164.034 107.210,161.097 102.700 C 158.160 98.190,155.204 93.651,154.528 92.614 L 153.300 90.728 153.200 103.714 L 153.100 116.700 150.800 116.700 L 148.500 116.700 148.449 99.450 L 148.398 82.200 150.789 82.200 L 153.181 82.200 155.304 85.450 M187.900 99.500 L 187.900 116.700 185.500 116.700 L 183.100 116.700 183.048 99.700 C 183.020 90.350,183.041 82.585,183.095 82.444 C 183.168 82.251,183.774 82.201,185.546 82.244 L 187.900 82.300 187.900 99.500 M237.519 86.199 C 235.235 86.928,233.411 88.616,232.313 91.016 C 230.463 95.059,230.520 104.139,232.421 108.140 C 235.475 114.565,244.525 114.865,247.677 108.645 C 249.709 104.636,249.781 94.891,247.810 90.664 C 245.998 86.777,241.635 84.884,237.519 86.199 M175.200 125.201 L 175.200 127.803 161.950 127.751 L 148.700 127.700 148.643 125.412 C 148.612 124.154,148.631 123.006,148.687 122.862 C 148.768 122.650,151.285 122.600,161.994 122.600 L 175.200 122.600 175.200 125.201 M175.156 138.250 L 175.100 140.900 162.013 140.951 C 151.675 140.992,148.892 140.950,148.766 140.751 C 148.573 140.448,148.544 135.923,148.733 135.733 C 148.807 135.660,154.794 135.600,162.039 135.600 L 175.212 135.600 175.156 138.250 " stroke="none" fill="#0c1c44" fill-rule="evenodd"></path><path id="path2" d="M194.300 24.800 C 194.026 24.918,194.342 24.972,195.300 24.972 C 196.258 24.972,196.574 24.918,196.300 24.800 C 196.080 24.705,195.630 24.628,195.300 24.628 C 194.970 24.628,194.520 24.705,194.300 24.800 M202.700 24.799 C 202.626 24.920,202.874 25.000,203.322 25.000 C 204.152 25.000,204.164 24.920,203.362 24.727 C 203.066 24.657,202.769 24.689,202.700 24.799 M191.650 25.143 C 191.953 25.189,192.447 25.189,192.750 25.143 C 193.053 25.097,192.805 25.060,192.200 25.060 C 191.595 25.060,191.347 25.097,191.650 25.143 M189.952 25.341 C 190.201 25.389,190.561 25.387,190.752 25.337 C 190.944 25.287,190.740 25.248,190.300 25.250 C 189.860 25.253,189.704 25.294,189.952 25.341 M186.900 25.623 C 177.241 27.340,167.558 30.844,161.300 34.886 C 160.420 35.455,159.250 36.180,158.700 36.497 C 155.264 38.480,144.400 47.713,144.400 48.651 C 144.400 48.760,145.458 47.815,146.750 46.551 C 155.771 37.729,164.244 32.599,176.900 28.296 C 179.767 27.321,184.439 26.233,188.400 25.618 C 189.364 25.468,189.401 25.447,188.700 25.446 C 188.260 25.445,187.450 25.525,186.900 25.623 M143.189 49.927 C 142.557 50.593,142.546 50.624,143.058 50.298 C 143.524 50.002,144.173 49.200,143.946 49.200 C 143.909 49.200,143.568 49.527,143.189 49.927 M226.887 57.061 C 226.832 57.205,226.812 58.442,226.844 59.811 L 226.900 62.300 240.600 62.302 L 254.300 62.304 240.639 62.251 L 226.978 62.197 227.039 59.498 C 227.099 56.828,227.082 56.553,226.887 57.061 M226.933 70.533 C 226.749 70.718,226.765 75.754,226.950 75.870 C 227.032 75.921,227.073 74.757,227.039 73.283 L 226.978 70.603 240.839 70.550 L 254.700 70.497 240.883 70.449 C 233.284 70.422,227.007 70.460,226.933 70.533 M208.350 81.741 C 208.597 81.789,209.003 81.789,209.250 81.741 C 209.498 81.693,209.295 81.654,208.800 81.654 C 208.305 81.654,208.103 81.693,208.350 81.741 M239.653 81.744 C 239.957 81.789,240.407 81.788,240.653 81.741 C 240.899 81.693,240.650 81.656,240.100 81.657 C 239.550 81.659,239.349 81.698,239.653 81.744 M170.292 82.450 C 170.239 82.588,170.220 88.505,170.248 95.600 L 170.300 108.500 170.400 95.350 C 170.455 88.117,170.475 82.200,170.444 82.200 C 170.413 82.200,170.344 82.313,170.292 82.450 M183.092 82.450 C 183.040 82.588,183.020 90.350,183.048 99.700 L 183.100 116.700 185.500 116.700 L 187.900 116.700 187.951 99.611 C 187.979 90.212,187.934 82.454,187.851 82.371 C 187.768 82.288,187.723 89.955,187.752 99.410 L 187.804 116.600 185.500 116.600 L 183.196 116.600 183.248 99.400 C 183.277 89.940,183.275 82.200,183.244 82.200 C 183.213 82.200,183.145 82.313,183.092 82.450 M199.291 85.450 L 198.500 86.300 199.350 85.509 C 200.140 84.774,200.292 84.600,200.141 84.600 C 200.108 84.600,199.725 84.983,199.291 85.450 M230.589 85.550 L 229.900 86.300 230.650 85.611 C 231.063 85.232,231.400 84.894,231.400 84.861 C 231.400 84.708,231.231 84.852,230.589 85.550 M246.000 88.100 C 246.373 88.485,246.723 88.800,246.778 88.800 C 246.833 88.800,246.573 88.485,246.200 88.100 C 245.827 87.715,245.477 87.400,245.422 87.400 C 245.367 87.400,245.627 87.715,246.000 88.100 M153.048 103.743 L 153.000 116.587 150.750 116.651 L 148.500 116.714 150.756 116.757 C 152.410 116.789,153.038 116.733,153.108 116.550 C 153.161 116.413,153.180 110.585,153.150 103.600 L 153.097 90.900 153.048 103.743 M195.050 95.500 C 195.053 95.940,195.094 96.096,195.141 95.848 C 195.189 95.599,195.187 95.239,195.137 95.048 C 195.087 94.856,195.048 95.060,195.050 95.500 M226.246 96.400 C 226.246 96.785,226.288 96.942,226.338 96.750 C 226.388 96.558,226.388 96.243,226.338 96.050 C 226.288 95.858,226.246 96.015,226.246 96.400 M249.283 99.400 C 249.283 101.435,249.313 102.267,249.349 101.250 C 249.385 100.233,249.385 98.567,249.349 97.550 C 249.313 96.532,249.283 97.365,249.283 99.400 M199.681 99.500 C 199.681 101.260,199.712 101.953,199.749 101.041 C 199.786 100.128,199.786 98.688,199.748 97.841 C 199.711 96.993,199.681 97.740,199.681 99.500 M230.879 99.400 C 230.879 100.995,230.911 101.648,230.949 100.850 C 230.986 100.053,230.986 98.748,230.949 97.950 C 230.911 97.153,230.879 97.805,230.879 99.400 M226.246 102.600 C 226.246 102.985,226.288 103.142,226.338 102.950 C 226.388 102.758,226.388 102.442,226.338 102.250 C 226.288 102.058,226.246 102.215,226.246 102.600 M195.050 103.500 C 195.053 103.940,195.094 104.096,195.141 103.848 C 195.189 103.599,195.187 103.239,195.137 103.048 C 195.087 102.856,195.048 103.060,195.050 103.500 M221.351 106.100 C 221.404 106.375,221.481 106.600,221.523 106.600 C 221.565 106.600,221.600 106.375,221.600 106.100 C 221.600 105.825,221.522 105.600,221.428 105.600 C 221.333 105.600,221.298 105.825,221.351 106.100 M234.100 110.800 C 234.530 111.240,234.926 111.600,234.981 111.600 C 235.036 111.600,234.730 111.240,234.300 110.800 C 233.870 110.360,233.474 110.000,233.419 110.000 C 233.364 110.000,233.670 110.360,234.100 110.800 M246.091 110.850 L 245.300 111.700 246.150 110.909 C 246.940 110.174,247.092 110.000,246.941 110.000 C 246.908 110.000,246.525 110.383,246.091 110.850 M199.200 113.500 C 199.573 113.885,199.923 114.200,199.978 114.200 C 200.033 114.200,199.773 113.885,199.400 113.500 C 199.027 113.115,198.677 112.800,198.622 112.800 C 198.567 112.800,198.827 113.115,199.200 113.500 M207.650 113.347 C 208.173 113.388,209.028 113.388,209.550 113.347 C 210.072 113.306,209.645 113.272,208.600 113.272 C 207.555 113.272,207.128 113.306,207.650 113.347 M217.789 113.950 L 217.100 114.700 217.850 114.011 C 218.548 113.369,218.692 113.200,218.539 113.200 C 218.506 113.200,218.168 113.538,217.789 113.950 M171.350 116.748 C 172.038 116.787,173.163 116.787,173.850 116.748 C 174.538 116.709,173.975 116.677,172.600 116.677 C 171.225 116.677,170.663 116.709,171.350 116.748 M210.250 117.138 C 210.443 117.188,210.757 117.188,210.950 117.138 C 211.143 117.088,210.985 117.046,210.600 117.046 C 210.215 117.046,210.058 117.088,210.250 117.138 M241.650 117.138 C 241.843 117.188,242.157 117.188,242.350 117.138 C 242.543 117.088,242.385 117.046,242.000 117.046 C 241.615 117.046,241.457 117.088,241.650 117.138 M148.687 122.862 C 148.631 123.006,148.612 124.154,148.644 125.412 L 148.702 127.700 148.801 125.150 C 148.899 122.632,148.884 122.347,148.687 122.862 M148.687 135.862 C 148.631 136.006,148.612 137.154,148.644 138.412 L 148.702 140.700 148.801 138.150 C 148.899 135.632,148.884 135.347,148.687 135.862 M161.900 140.800 L 148.700 140.904 161.838 140.952 C 170.433 140.983,175.019 140.931,175.100 140.800 C 175.168 140.690,175.196 140.622,175.162 140.648 C 175.128 140.674,169.160 140.743,161.900 140.800 " stroke="none" fill="#6d623c" fill-rule="evenodd"></path><path id="path3" d="M233.965 75.950 C 237.740 75.980,243.860 75.980,247.565 75.950 C 251.269 75.919,248.180 75.895,240.700 75.895 C 233.220 75.895,230.189 75.919,233.965 75.950 M148.496 99.500 C 148.496 108.960,148.520 112.801,148.550 108.035 C 148.580 103.269,148.580 95.529,148.550 90.835 C 148.520 86.141,148.496 90.040,148.496 99.500 M218.150 105.747 C 218.728 105.788,219.673 105.788,220.250 105.747 C 220.828 105.707,220.355 105.674,219.200 105.674 C 218.045 105.674,217.572 105.707,218.150 105.747 M174.999 125.159 L 175.098 127.700 175.156 125.317 C 175.187 124.006,175.143 122.862,175.057 122.776 C 174.970 122.689,174.945 123.762,174.999 125.159 M155.465 135.750 C 159.075 135.780,164.925 135.780,168.465 135.750 C 172.004 135.719,169.050 135.694,161.900 135.694 C 154.750 135.694,151.854 135.719,155.465 135.750 M175.076 138.300 C 175.077 139.620,175.109 140.134,175.148 139.442 C 175.187 138.750,175.187 137.670,175.148 137.042 C 175.108 136.414,175.076 136.980,175.076 138.300 " stroke="none" fill="#82743c" fill-rule="evenodd"></path><path id="path4" d="M227.131 56.950 C 227.047 57.086,237.063 57.084,249.500 56.946 C 252.140 56.917,248.208 56.872,240.762 56.846 C 233.316 56.821,227.182 56.867,227.131 56.950 M254.443 59.449 L 254.400 61.997 240.650 62.050 L 226.900 62.103 240.656 62.151 C 251.838 62.191,254.431 62.151,254.513 61.938 C 254.568 61.794,254.585 60.602,254.550 59.288 L 254.486 56.900 254.443 59.449 M254.478 73.200 C 254.478 74.685,254.510 75.293,254.548 74.550 C 254.587 73.808,254.587 72.593,254.548 71.850 C 254.510 71.108,254.478 71.715,254.478 73.200 M207.957 81.948 C 208.538 81.988,209.438 81.988,209.957 81.947 C 210.476 81.906,210.000 81.873,208.900 81.873 C 207.800 81.874,207.376 81.907,207.957 81.948 M239.157 81.948 C 239.738 81.988,240.638 81.988,241.157 81.947 C 241.676 81.906,241.200 81.873,240.100 81.873 C 239.000 81.874,238.576 81.907,239.157 81.948 M150.692 82.350 C 152.403 82.400,152.974 82.490,153.292 82.757 C 153.698 83.098,153.698 83.098,153.319 82.650 C 152.962 82.228,152.801 82.203,150.719 82.242 L 148.500 82.285 150.692 82.350 M170.495 82.443 C 170.441 82.584,170.420 88.550,170.450 95.700 L 170.503 108.700 170.551 95.550 L 170.600 82.400 172.699 82.400 L 174.798 82.400 174.851 99.550 L 174.903 116.700 174.902 99.500 L 174.900 82.300 172.746 82.243 C 171.135 82.201,170.568 82.251,170.495 82.443 M183.295 82.443 C 183.241 82.584,183.220 90.350,183.250 99.700 L 183.302 116.700 183.351 99.550 L 183.400 82.400 185.499 82.400 L 187.598 82.400 187.651 99.550 L 187.703 116.700 187.702 99.500 L 187.700 82.300 185.546 82.243 C 183.935 82.201,183.368 82.251,183.295 82.443 M230.800 85.500 C 230.314 85.995,229.962 86.400,230.017 86.400 C 230.072 86.400,230.514 85.995,231.000 85.500 C 231.486 85.005,231.838 84.600,231.783 84.600 C 231.728 84.600,231.286 85.005,230.800 85.500 M208.550 85.541 C 208.798 85.589,209.203 85.589,209.450 85.541 C 209.697 85.493,209.495 85.454,209.000 85.454 C 208.505 85.454,208.303 85.493,208.550 85.541 M234.000 88.100 C 233.514 88.595,233.162 89.000,233.217 89.000 C 233.272 89.000,233.714 88.595,234.200 88.100 C 234.686 87.605,235.038 87.200,234.983 87.200 C 234.928 87.200,234.486 87.605,234.000 88.100 M246.200 88.100 C 246.573 88.485,246.923 88.800,246.978 88.800 C 247.033 88.800,246.773 88.485,246.400 88.100 C 246.027 87.715,245.677 87.400,245.622 87.400 C 245.567 87.400,245.827 87.715,246.200 88.100 M218.257 93.348 C 218.894 93.388,219.884 93.387,220.457 93.347 C 221.031 93.307,220.510 93.274,219.300 93.275 C 218.090 93.275,217.621 93.308,218.257 93.348 M230.846 95.800 C 230.846 96.185,230.888 96.343,230.938 96.150 C 230.988 95.958,230.988 95.642,230.938 95.450 C 230.888 95.258,230.846 95.415,230.846 95.800 M253.880 99.400 C 253.880 101.105,253.911 101.803,253.949 100.950 C 253.986 100.098,253.986 98.703,253.949 97.850 C 253.911 96.998,253.880 97.695,253.880 99.400 M195.080 99.500 C 195.080 101.150,195.111 101.798,195.149 100.941 C 195.186 100.083,195.186 98.733,195.148 97.941 C 195.110 97.148,195.080 97.850,195.080 99.500 M226.273 99.500 C 226.274 100.600,226.307 101.024,226.348 100.443 C 226.388 99.862,226.388 98.962,226.347 98.443 C 226.306 97.924,226.273 98.400,226.273 99.500 M249.471 99.500 C 249.470 100.490,249.504 100.920,249.546 100.456 C 249.588 99.992,249.589 99.182,249.547 98.656 C 249.506 98.130,249.472 98.510,249.471 99.500 M246.087 111.050 L 245.500 111.700 246.150 111.113 C 246.756 110.565,246.892 110.400,246.737 110.400 C 246.703 110.400,246.410 110.692,246.087 111.050 M214.287 111.650 L 213.700 112.300 214.350 111.713 C 214.956 111.165,215.092 111.000,214.937 111.000 C 214.903 111.000,214.610 111.293,214.287 111.650 M198.600 112.663 C 198.600 112.697,198.893 112.990,199.250 113.313 L 199.900 113.900 199.313 113.250 C 198.765 112.644,198.600 112.508,198.600 112.663 M217.600 113.900 C 217.114 114.395,216.762 114.800,216.817 114.800 C 216.872 114.800,217.314 114.395,217.800 113.900 C 218.286 113.405,218.638 113.000,218.583 113.000 C 218.528 113.000,218.086 113.405,217.600 113.900 M239.550 113.345 C 239.907 113.389,240.493 113.389,240.850 113.345 C 241.207 113.300,240.915 113.264,240.200 113.264 C 239.485 113.264,239.193 113.300,239.550 113.345 M207.954 117.145 C 208.313 117.189,208.853 117.189,209.154 117.143 C 209.454 117.097,209.160 117.061,208.500 117.062 C 207.840 117.063,207.594 117.100,207.954 117.145 M239.650 117.143 C 239.953 117.189,240.447 117.189,240.750 117.143 C 241.053 117.097,240.805 117.060,240.200 117.060 C 239.595 117.060,239.347 117.097,239.650 117.143 M155.465 122.750 C 159.075 122.780,164.925 122.780,168.465 122.750 C 172.004 122.719,169.050 122.694,161.900 122.694 C 154.750 122.694,151.854 122.719,155.465 122.750 M155.365 127.750 C 159.030 127.780,164.970 127.780,168.565 127.750 C 172.159 127.719,169.160 127.694,161.900 127.694 C 154.640 127.694,151.699 127.719,155.365 127.750 M155.365 140.750 C 159.030 140.780,164.970 140.780,168.565 140.750 C 172.159 140.719,169.160 140.694,161.900 140.694 C 154.640 140.694,151.699 140.719,155.365 140.750 " stroke="none" fill="#8d7c3c" fill-rule="evenodd"></path></g></svg>
